<?xml version="1.0" encoding="UTF-8"?>
<svg id="Layer_2" data-name="Layer 2" xmlns="http://www.w3.org/2000/svg" viewBox="0 0 1017.95 774.78">
  <g id="Layer_1-2" data-name="Layer 1">
    <g>
      <path d="M294.94,751.28l-13.13-6-8.34-3.67-14.9-6.68-13.58-6.26-8.15-4.04-7.13-3.86-26.45-14.03-10.46-3.4-19.12-10.44-6.67-4.04c-3.89-1.05-7.55-3.09-10.35-6.11l-15.65-7.05-14.17-7.47-11.9-7.41-45.05-24.35-25.43-11.58c-11.09-5.05-21.38-10.92-32.86-15.07-6.6-2.39-9.93-8.22-8.2-15.64,1.34-5.71-1.38-10.13-.56-17.46.47-4.15.53-7.84.17-11.86l-.69-7.65-1-11.1c-.53-5.81-.08-12.73.7-18.47.45-3.33.58-4.59-.5-7.7l-.17-7.58-.16-45.25-.05-12.28-.27-14.16.51-29.49c.17-9.85.04-18.48-.02-28.43l-.13-21.72-.92-17.57c-1.01-19.35.73-38.15,1.51-57.56l-.4-10.82-1.18-14.15.96-18.73.17-14.42c.09-7.59-.38-14.44,5.36-20.4l-1.35-5.43,10.18-6.29c3.54-2.19,5.27-1.64,9.57-1.78,8.87-.3,18.16-3.66,27.12-4.61l9.91-1.04,8.76-.95,14.24-1.04,18.18-.68,12.14-2.38,19.57-1.61c3.64,1.98,8.07,1.93,11.71-.16,4.9,1.5,10.15,1.55,14.55-.89,4.94,1.94,9.65,1.49,15.27,1.05l10.7-.84c8.75-.68,17.29-1.55,26.25-1.33l16.24.4,5.46-.75,10.99-.81,14.34-1.47,5.02.25,20.7-2.42,9.01-1.17,13.03-.36c10.34-.28,19.41-.63,29.45-3.76,13.07-4.07,16.03,3.42,22.32,2.57,5.51-.75,9.87.35,15.2.9l35.45,3.67,32.67,3.89,11.07,1.4,20.81,3.31,36.96,5.51,14.82,1.1,25.47,3.91,16.97,2.72,37.68,5.33,29.58,3.89,37.4,4.67,17.91,2.81,19.71,3.95,23.09,2.87,5.07-.75c2.46-.36,6.65,9.18,6.89,12.19l2.26,28,1.09,17.85.18,13.48.51,17.29.8,21.6-.53,34.91c3.07,8.88,1.13,18.12,1.16,27.38l.04,15.43.25,16.91-.05,38.01.15,21.21-.09,7.68-3.4,41.93-1.31,31.97-.78,20.62-.04,22.48c-.02,8.97,2.77,17.89.54,26.94,3.92,4.17,2.09,9.17-1.8,12.39l-3.64,3.01c-7.86,1.84-12.64,8.27-17.96,8.81s-9.91,4.83-14.51,6.12l-36.75,10.31-32.89,9.89-36.79,12.28c-9.77,3.26-18.45,6.57-28.68,8.82l-27.33,9.14-14.45,5.25-15.98,2.5-18.26,5.94-18.19,4.86-18.43,5.14-13.11,5.01-22.09,6.99-7.93,2.38-10.89,3.17-14.96,4.43-18,5.27-15.89,3.92-8.2,1.98c-3.43.83-5.56-.78-8.3-1.66-8.79-2.82-16.97-5.65-25.13-9.94l-15.1-7.93-7.41-3.75ZM389.54,276.74l9.81-1.98,10.73-1.69c12.25-3.54,23.95-6.13,36.44-7.97l30.54-4.52,15.13-2.4,19.94-3.74,25.18-4.74,23.69-4.86,7.41-1.86,22.79-4.73c3.59-.75,6.59-.81,10.56-.78,3.28.03,9.31-3.52,12.78-3.22,6.08.51,11.11,1.03,16.23-1.49l-14.68-1.63-14.01-1.59-15.21-1.58-29.7-3.4c-11.07-1.27-21.22-3.83-32.34-5.37l-21.01-2.91-16.8-3.11-16.32-3.34-18.25-2.16-8.95-1.17-7.22-.92-12.24-1.36-10.9-1.66-8.76-2.19c-2.51-.63-6.95-1.7-8.99-2.68-5.49-2.63-9.6-2.6-15.49-3.12l-21.43-1.92-31.34,4.33-11.61.9-14.95,1.61-12.69.62-9.07.93c-7.65-.29-14.1.05-21.7,2.03l-15.05,1.09-18.63,3.38-5.48.22-19.72,1.21-11.51.93-22.75.87-20.2.61-18.38,1.82-20.52,3.36,12.18,3.31,4.62,1.77c5.5.95,10.6,2.66,16.02,4.74l7.84,3.01,23.22,5.64c8.41,2.04,16.81,5.37,25.43,6.46,10.42,1.32,20.28,2.74,30.53,5.61l9.57,2.68c4.14,1.16,7.26,2.09,11.95,2.75l9.21,4.13,15.21,5.89c3.5,1.35,8.06,2.16,11.9,3.23l20.57,5.73,12.37,5.05c2.9,1.18,4.08,2.3,7.25,2.57l12.98,4.2c2.01-1.35,5.81-3.31,7.53-2.67,1.53.57,3.9,2.67,5.81,4.27l28.14-5.33,12.32-2.86ZM335.47,727.78l-3.16-40.47-.58-15.55-.77-9.88-.46-17.26.4-7.88.39-14.93.78-25.31.39-14.55-.89-8.41.61-19.88c.08-2.54.59-3.84.16-6.33-1.06-6.13-.28-12.66.44-18.8-.47-.77-1.58-2.37-1.22-2.98l1.25-2.1c-.71-2.57-1.17-5.49-1.26-8.28l-.46-14.9-.09-23.9c-.05-13.34-.95-26.2-.99-39.26l-.12-40.02.28-6.15-1.24-18.74-.26-6.1-.81-23.44-.85-18.69c-.21-4.57.79-10.76-1.97-14.32-4.69-.58-9.12-1.34-13.59-2.71l-10.65-3.29-19.07-5-10.95-2.31-8.21-1.43-11.1-4.39-15.92-4.55c-.84-.24-3.45.86-3.99.37l-2.12-1.93c-5.3-.62-10.8-1.86-15.71-3.82l-5.83-2.32c-1.94-.77-4.03-1.34-6.15-1.81l-7.79-1.72-32.89-10.41-12.14-3.11-21.37-6.07-23.66-7.81-13.95-4.38-8.53-2.03c-1.52-.36-3.19-1.22-4.84-2.03l-9.04-4.43-5.74-1.32-13.5-4.47-18.4-6.83-.27,15.03.06,19.49.03,8.04,1.17,20.87-.02,15.16,1.59,30.76.42,18.14,1.16,27.99c-.25,1.49-.13,3.14-.11,5.01l.23,31.69-1.04,10.22.65,5.6c1.07,9.19-2.79,16.05-1.28,23.65l.2,6.9-.61,8,1.68,20.6c.43,5.33-1.78,10.96-1.5,15.53l1.1,17.7c.15,2.39.22,3.53-.28,6.15-2.16,11.25-1.26,22.9.59,34.17-3.25,4.16-2.53,9.13.71,12.61-.91,2-1.38,4.18-1.19,5.97l.89,8.09,9.85,4.49,13.66,7.24,8.14,4.35c6.08,3.24,11.28,5.31,17.15,8.53l21,11.5,7.62,4.46,31,14.98,11.17,5.28,10.62,4.57,12.6,6.05,7.93,3.9,22.63,11.34,12.6,6.94,29.52,13.75,21.61,11.17,12.44,7.32,11.33,6.1,13.01,6.67,11.67,4.57,8.89,3.72,6.84,2.93.1-11.3ZM432.84,721.92l11.13-3.31,21.59-6.76,28.83-9.04,15.2-4.35,8.57-2.38,12.82-3.58,12.55-3.56,6.54-1.5,26.44-6.97c5.79-1.53,11.8-4,17.64-4.48l8.01-2.56,10.14-3.66,17.9-6.16,8.2-2.75,9.71-3.23,11-4.49,7.34-3.37,24.66-6.93,9.38-2.66,20.26-4.8,3.72-.88-1.31-9.52-.37-16.6-.6-10.57c-1.9-9.02-2.14-17.27-1.93-26.13l-1.01-8.24.09-4.58c-2.11-10.12,2.28-16.22-1.29-21.34l1.75-21.38,1.26-11.63c.87-8.04-.17-15.46-.53-23.63l-.37-8.38.09-6.73-.24-21.86-.22-9.19.28-27.81-1.68-14.64-.75-8.64c-.99-11.39-.36-22.45.68-33.89l1.27-14.02,1.19-31.75,1.02-34.18-.24-8.18-.51-11.72c-3.25,1.7-6.67,1.13-10.68,1.19l-28.29.47-20.75,2.33c-18.25,2.05-29.99,10.69-54.11,12.53-3.24.25-6.8-.12-9.81,1.14-1.65.69-5.36.19-7.06.48l-25.68,4.35-9.96,1.81c-3.8.69-7.16.23-11.34.04-5.38-.24-11.91,1.5-17.42,2.53l-22.7,4.22c-4.63.86-8.19,1.36-12.94,2.65l-10.07,2.73-14.21,3.41-16.87,3.61-16.5,3.26-17.9,5.28c-2.6.77-7.85,1.95-10.5,1.97-6.24.06-11.2,1.17-16.92,1.71l-24.74,2.33c-1.14,3.96-1.57,8.41-1.59,12.64l-.05,15.46c.74,6.63.08,13.04-1.4,19.62,1.99,8.27,2.38,16.46,1.49,24.74.08,11.99-1.01,23.54-.33,35.03l1.77,30.15.52,27.13c.16,8.38-.98,16.32.06,24.95l-.65,10.53c1.19,10.01.8,18.69-1.44,28.47.58,3.1,2.48,9.05,1.94,12.01-1.1,6.08-1.43,11.12-1.46,17.15l-.11,17.48-1.49,20.92c1.47,6.21,1.44,12.47-1.48,18.64l1.11,9.77c.53,4.65-1.77,10.02-1.67,15.52l.13,7.14.13,19.53-.16,10.22-.16,6.31.99,16.26c.77,12.6,3.16,23.92.87,36.9,5.96.56,10.15-2.32,15.35-4.01l25.55-8.31,8.62-3.5,12.12-3.25,11.6-3.5Z"/>
      <path d="M871.35,97.63c-6.24-3.15-6.65-8.98-7.05-14.19l-1.07-13.6-.72-13.11.37-23.77c.04-2.51-1.99-5.69-.17-8.12,5.43-7.28,6.91-.47,15.75-2.44l19.37-4.33c2.14-.24,7.11,1.56,8.35,3.42,2.52,3.76,2.37,10.26-.47,14.1-3.91.61-8.82,1.17-12.43.92l-17.42-1.24.8,11.83,24.64-4.35c2.34-.41,6.4.22,8.5,1.59,1.9,1.25,2.83,4.78,3.75,7.84,4.11,13.66-19.33,11.85-35.24,8.58l1.8,12.46,8.68-3.15,13.74-4.23c7.05-2.17,15.65-2.02,23.39-1.79-4-13.64-2-27.8,4.97-40.66,7.55-13.93,29.32-14.15,36.47-5.9,2.97,3.43,4.12,7.36,2.31,12.51l-12.96-3.35c-11.09-2.86-19.46,25.72-5.75,39.43,7.63-3.4,14.14-8.18,20.56-13.99l9.75.2c3.64.07,4.71,6.55,5.85,9.31,1.91,4.66,1.96,8.53-2.23,11.76l-8.55,6.6-5.76,3.32c-2.48,1.43-4.74,2.27-7.56,2.72l-13.08,2.07-7.93-2.29c-3.83-1.1-7.17-3.46-9.67-6.47l-4.91-5.92c.28,4.15-3.65,9.76-8.86,10.1l-23.93,1.56-10.76.48c-.06,2.8-.91,8.75-3.19,9.41l-9.32,2.71Z"/>
      <path d="M803.8,270.02c-3.07.47-5.85-3.81-6.36-6.62l-1.13-6.24c-.28-1.54,3.54-2.86,4.39-4.16l10.1-15.38,1.39-9.93c2.48-3.27,3.15-5.29,1.22-8.73l.49-7.7.04-9.59c.01-2.81.71-5.5-.62-8.87-.98-2.49-1.34-5.69-1.25-7.84l-8.43-6.38c-2.01-1.52-2.86-6.85-1.77-9.1l3.46-7.14c-.44-1.42-.37-3.17.27-4.63.55-1.25,4.07-1.52,6.48-1.74l-2.92-2.28c5.79.94,8.38-3.17,8.6-2.64l1.29,3.21c4.18-1.7,11.69-2.64,13.87,2.55l6.19,14.7c2.2,5.23,3.13,10.63,1.53,15.84.81,1.41,2.06,3.81,2.08,4.97l.11,6.33c-1.2,3.65-1.6,7.92-1.27,11.64-.36.72-1.42,2.38-1.15,3.03l.93,2.24-2.41,8.81-3.01,12.36c-1.5,6.15-3.4,12.69-7.65,17.66l-6.06,7.08c-6.57,7.68-9.76,7.25-18.43,8.58Z"/>
      <path d="M740.39,79.46l11.61-.89c1.86-.14,5.82,1.12,7.09,2.31,1.42,1.34,2.24,4.94,2.9,7.35l.57,2.11c.11.39.1,1.77-.3,1.64l-3.03-.99,2.87,4.23c-9.76,5.07-19.67,6.34-30,5.89-12.37-.55-24.75-.6-25.69-10.71l-.87-9.37-.31-26.47.02-17.78-2.53-8.34,17.11-4.5,20.07-4.56,11.46.34c4.42,3.54,6.67,14.33,2.57,18.64l-16.3-.94-20.96,1.06,1.96,10.47,10.28-4.14c8.81-3.55,23.04-5.27,26.95-.08,3.29,4.37,3.47,15.95-2.89,16.43l-32.83,2.47,2.15,14.41c6.04,1.56,11.71,1.91,18.12,1.42Z"/>
      <path d="M628.93,89.7c-3.46-14.73-7.26-42.31.81-47.33,5.05-3.14,13.49,1.59,15.77,9.73l4.33,3.3c2.95,5.42,6.88,9,11.58,12.49,3.44,2.56,5.85,4.67,10.65,5.55l-2.81-11.84-5.21-14.89c-1.75-4.99-1.69-14.08.4-17,1.44-2.01,5.56-1.82,8.02-1.93,3.74-.17,7.53-.71,9.44,3.49l6.34,14.01,1.76,2.94c.32.53-.28,1.18-1,2.59.94,1.79,4.21,6.75,4.14,9.26l-.64,23.38c-2.06,1.99-3.91,5.01-5.09,7.18-8.11,8.76-21.22,7.06-30.06,1.18l-11.33-7.54c.52,2.9,1.17,7.78.41,10.2s-5.05,6.29-8.12,6.32c-4.86.04-8.24-6.04-9.43-11.09Z"/>
      <path d="M844.13,84.5c-6.4,2.86-13.52,5.02-20.44,5.86-6.08.74-12.81-1.36-19.06-2.09l-8.32-8.08c-1.89-4.96-1.3-10.97,1.61-15.47,1.19-1.84,7.08-1.94,8.62-.41,2.8,2.77,6.52,6.47,10.01,6.43,6.48-.09,12.11-1.19,17.65-4.83l-29.94-8.02c-8.9-2.39-8.45-15.28-3.37-21.3l5.21-8.29c9.1-14.47,29.79-18.98,39.91-11.13,5.61,4.35,5.76,11.95,4.11,18.25-10.02,3.64-12.49.46-19.98-5.08-8.95-.51-15.59,5.7-18.65,13.2l22.64,2.15c6.28.6,11.88,3.38,16.26,7.5,7.11,6.7,4.92,20.41.09,25.13l-6.35,6.19Z"/>
      <path d="M613.38,89.04c-4.94,3.4-10.9,8.45-16.8,10.53-13.44,4.76-29.12,4.62-40.75-3.57-9.33-6.56-9.25-21.15-2.87-29.65l11.11-11.07c.31-7.34,5.11-11.78,12.24-12.97,12.14-2.02,30.76,1.21,36.07,11.64l4.38,3.37c1.1,4.89,2.92,11.41,2.3,16.07l-1.11,8.37-4.56,7.27ZM598.18,77.45c1.13-1.27,2.46-4.8,2.09-6.41-.98-4.27-7.83-6.57-13.85-8.01l-10.24.43c-3.49.15-5.15,1.58-7.85,4.44-2.75,2.91-8.63,8.56-5.12,13.48,6.04,8.47,25.17,7.07,34.97-3.92Z"/>
      <path d="M999.24,49.95c-3.5-4.66-5.21-18.55-4.18-25.6-.25-5.26-1.71-11.39.76-16.89,1.97-4.4,10.88-8.77,15.09-7.1,7.06,2.78,6.64,11.81,6.5,17.53l-.28,10.85c-.19,7.26,1.38,15.71-3.75,21.96-2.45,2.99-11.32,3-14.15-.75Z"/>
      <path d="M1015.58,81.95c-3.61,5.77-11.28,4.72-15.68,2.54-1.86-.92-6.1-13.28,2.17-18.99,4.55-3.13,9.6-1.64,13.05,1.63,4.18,3.97,3.23,10.39.46,14.81Z"/>
      <path d="M493.35,618.58c-4.76,5.46-11.81,2.72-17.74,2.49-4.96-.19-11.7,1.82-16.06-.14-9.59-4.33-13.31-13.29-16.09-22.5l-5.13-16.96-2.92-11.04-2.87-12.29c-1.87-7.99-3.44-15.02-4.12-23.29l-1.05-12.67-.88-24.32.37-23.36,2.46-26.73,3.04-22.53c1.43-10.6,6.64-20.38,9.74-30.3,2.33-7.44,4.39-13.19,10.25-18.59,2.51-2.31,4.77-3.14,8.47-3.59,14.07-1.74,29.59-1.62,36.77,10.47l10.22,17.2c3.15,5.3,5.36,10.77,6.25,16.72l2,13.32,4.02,35.94,1.38,21.54.49,17.07-2.43,32.31-1.41,10.44-3.19,17.7-4.62,17.28-10.04,31c-2.86,1.14-5.13,2.8-6.92,4.85Z"/>
      <path d="M629.53,574.79c-4.8,10.96-14.62,16.01-26.35,13.38l-7.55-1.69c-8.21-1.84-12.27-6-14.14-14.09l-2.39-10.31-4.19-17.68-6.88-34.68-1.54-14.21-2.68-16.63c-2.57-15.96-1.22-45.06,2.14-61.21l4.02-19.3,2.55-9.28c4.37-15.91,8.34-36.42,23.91-43.03l9.16-3.89c5.39-2.29,9.78-1.59,14.94.68,7.65,3.36,10.42,10.34,11.92,18.13l2.43,12.59,5.54,25.88,3.53,19.01,2.86,14.47.95,10.25,1.45,10.43.38,29.41-.72,23.96-2.18,13.94-2.7,13.39-5.26,17.57-4.73,12.73-4.47,10.2Z"/>
      <path d="M558.24,660.08l-10.63,2.46-12.42.15c-4.71.06-9.6-1.26-11.97-4.91-4.15-6.37,1.57-16.85,9.39-17.85,23.97-3.06,28.44-13.16,33.63-12.68l10.11.93c.82.08,3.3.56,3.46,1.3l.8,3.73,1.88,2.45c.42.55-.78,2.23-1.3,3.01,1.16,7.88-3.12,15.22-11.35,16.97l-11.6,4.45Z"/>
    </g>
  </g>
</svg>